<mxfile host="app.diagrams.net" modified="2024-04-30T21:59:29.698Z" agent="Mozilla/5.0 (Windows NT 10.0; Win64; x64) AppleWebKit/537.36 (KHTML, like Gecko) Chrome/122.0.0.0 YaBrowser/24.4.0.0 Safari/537.36" etag="Xl2meeo39PyfJtn9_FeF" version="24.3.1" type="device">
  <diagram name="Страница — 1" id="NHcGlXu7DofftbJSKVmM">
    <mxGraphModel dx="2024" dy="1258" grid="1" gridSize="10" guides="1" tooltips="1" connect="1" arrows="1" fold="1" page="1" pageScale="1" pageWidth="827" pageHeight="1169" math="0" shadow="0">
      <root>
        <mxCell id="0" />
        <mxCell id="1" parent="0" />
        <mxCell id="s73U85u5VPr2uQ-XVRA2-2" value="&lt;font style=&quot;font-size: 14px;&quot;&gt;Учитель математики&lt;/font&gt;" style="shape=umlActor;verticalLabelPosition=bottom;verticalAlign=top;html=1;outlineConnect=0;fillColor=#cdeb8b;strokeColor=#36393d;" vertex="1" parent="1">
          <mxGeometry x="210" y="240" width="40" height="80" as="geometry" />
        </mxCell>
        <mxCell id="s73U85u5VPr2uQ-XVRA2-5" value="" style="html=1;points=[[0,0,0,0,5],[0,1,0,0,-5],[1,0,0,0,5],[1,1,0,0,-5]];perimeter=orthogonalPerimeter;outlineConnect=0;targetShapes=umlLifeline;portConstraint=eastwest;newEdgeStyle={&quot;curved&quot;:0,&quot;rounded&quot;:0};" vertex="1" parent="1">
          <mxGeometry x="220" y="390" width="10" height="220" as="geometry" />
        </mxCell>
        <mxCell id="s73U85u5VPr2uQ-XVRA2-7" value="" style="endArrow=none;dashed=1;html=1;rounded=0;" edge="1" parent="1">
          <mxGeometry width="50" height="50" relative="1" as="geometry">
            <mxPoint x="224.47" y="390" as="sourcePoint" />
            <mxPoint x="224.47" y="350" as="targetPoint" />
          </mxGeometry>
        </mxCell>
        <mxCell id="s73U85u5VPr2uQ-XVRA2-8" value="" style="endArrow=none;dashed=1;html=1;rounded=0;" edge="1" parent="1">
          <mxGeometry width="50" height="50" relative="1" as="geometry">
            <mxPoint x="224.41" y="690" as="sourcePoint" />
            <mxPoint x="224.41" y="610" as="targetPoint" />
          </mxGeometry>
        </mxCell>
        <mxCell id="s73U85u5VPr2uQ-XVRA2-10" value="" style="rounded=0;whiteSpace=wrap;html=1;fillColor=#cdeb8b;strokeColor=#36393d;" vertex="1" parent="1">
          <mxGeometry x="349" y="260" width="130" height="40" as="geometry" />
        </mxCell>
        <mxCell id="s73U85u5VPr2uQ-XVRA2-11" value="&lt;font style=&quot;font-size: 14px;&quot;&gt;Генерация задачи&lt;/font&gt;" style="rounded=0;whiteSpace=wrap;html=1;fillColor=#cdeb8b;strokeColor=#36393d;" vertex="1" parent="1">
          <mxGeometry x="540" y="260" width="130" height="40" as="geometry" />
        </mxCell>
        <mxCell id="s73U85u5VPr2uQ-XVRA2-12" value="&lt;font style=&quot;font-size: 14px;&quot;&gt;Демонстрация задачи&lt;/font&gt;" style="rounded=0;whiteSpace=wrap;html=1;fillColor=#cdeb8b;strokeColor=#36393d;" vertex="1" parent="1">
          <mxGeometry x="730" y="260" width="130" height="40" as="geometry" />
        </mxCell>
        <mxCell id="s73U85u5VPr2uQ-XVRA2-13" value="&lt;font style=&quot;font-size: 14px;&quot;&gt;Сохранение задачи в БД&lt;/font&gt;" style="rounded=0;whiteSpace=wrap;html=1;fillColor=#cdeb8b;strokeColor=#36393d;" vertex="1" parent="1">
          <mxGeometry x="920" y="260" width="130" height="40" as="geometry" />
        </mxCell>
        <mxCell id="s73U85u5VPr2uQ-XVRA2-14" value="" style="endArrow=classic;html=1;rounded=0;" edge="1" parent="1" target="s73U85u5VPr2uQ-XVRA2-15">
          <mxGeometry width="50" height="50" relative="1" as="geometry">
            <mxPoint x="230" y="430" as="sourcePoint" />
            <mxPoint x="370" y="430" as="targetPoint" />
          </mxGeometry>
        </mxCell>
        <mxCell id="s73U85u5VPr2uQ-XVRA2-15" value="" style="html=1;points=[[0,0,0,0,5],[0,1,0,0,-5],[1,0,0,0,5],[1,1,0,0,-5]];perimeter=orthogonalPerimeter;outlineConnect=0;targetShapes=umlLifeline;portConstraint=eastwest;newEdgeStyle={&quot;curved&quot;:0,&quot;rounded&quot;:0};" vertex="1" parent="1">
          <mxGeometry x="404" y="390" width="10" height="80" as="geometry" />
        </mxCell>
        <mxCell id="s73U85u5VPr2uQ-XVRA2-16" value="" style="html=1;points=[[0,0,0,0,5],[0,1,0,0,-5],[1,0,0,0,5],[1,1,0,0,-5]];perimeter=orthogonalPerimeter;outlineConnect=0;targetShapes=umlLifeline;portConstraint=eastwest;newEdgeStyle={&quot;curved&quot;:0,&quot;rounded&quot;:0};" vertex="1" parent="1">
          <mxGeometry x="600" y="460" width="10" height="80" as="geometry" />
        </mxCell>
        <mxCell id="s73U85u5VPr2uQ-XVRA2-18" value="" style="html=1;points=[[0,0,0,0,5],[0,1,0,0,-5],[1,0,0,0,5],[1,1,0,0,-5]];perimeter=orthogonalPerimeter;outlineConnect=0;targetShapes=umlLifeline;portConstraint=eastwest;newEdgeStyle={&quot;curved&quot;:0,&quot;rounded&quot;:0};" vertex="1" parent="1">
          <mxGeometry x="980" y="460" width="10" height="80" as="geometry" />
        </mxCell>
        <mxCell id="s73U85u5VPr2uQ-XVRA2-19" value="" style="endArrow=classic;html=1;rounded=0;" edge="1" parent="1" source="s73U85u5VPr2uQ-XVRA2-5">
          <mxGeometry width="50" height="50" relative="1" as="geometry">
            <mxPoint x="400" y="499.99999999999994" as="sourcePoint" />
            <mxPoint x="600" y="499.99999999999994" as="targetPoint" />
          </mxGeometry>
        </mxCell>
        <mxCell id="s73U85u5VPr2uQ-XVRA2-20" value="" style="html=1;points=[[0,0,0,0,5],[0,1,0,0,-5],[1,0,0,0,5],[1,1,0,0,-5]];perimeter=orthogonalPerimeter;outlineConnect=0;targetShapes=umlLifeline;portConstraint=eastwest;newEdgeStyle={&quot;curved&quot;:0,&quot;rounded&quot;:0};" vertex="1" parent="1">
          <mxGeometry x="790" y="460" width="10" height="160" as="geometry" />
        </mxCell>
        <mxCell id="s73U85u5VPr2uQ-XVRA2-21" value="" style="endArrow=classic;html=1;rounded=0;" edge="1" parent="1" target="s73U85u5VPr2uQ-XVRA2-20">
          <mxGeometry width="50" height="50" relative="1" as="geometry">
            <mxPoint x="229" y="570" as="sourcePoint" />
            <mxPoint x="599" y="570" as="targetPoint" />
          </mxGeometry>
        </mxCell>
        <mxCell id="s73U85u5VPr2uQ-XVRA2-22" value="" style="endArrow=classic;html=1;rounded=0;" edge="1" parent="1" target="s73U85u5VPr2uQ-XVRA2-20">
          <mxGeometry width="50" height="50" relative="1" as="geometry">
            <mxPoint x="610" y="500" as="sourcePoint" />
            <mxPoint x="770" y="500" as="targetPoint" />
          </mxGeometry>
        </mxCell>
        <mxCell id="s73U85u5VPr2uQ-XVRA2-23" value="" style="endArrow=classic;html=1;rounded=0;" edge="1" parent="1">
          <mxGeometry width="50" height="50" relative="1" as="geometry">
            <mxPoint x="800" y="498.82" as="sourcePoint" />
            <mxPoint x="980" y="499.32" as="targetPoint" />
          </mxGeometry>
        </mxCell>
        <mxCell id="s73U85u5VPr2uQ-XVRA2-25" value="" style="endArrow=none;dashed=1;html=1;rounded=0;" edge="1" parent="1">
          <mxGeometry width="50" height="50" relative="1" as="geometry">
            <mxPoint x="408" y="690" as="sourcePoint" />
            <mxPoint x="408.40999999999997" y="470" as="targetPoint" />
          </mxGeometry>
        </mxCell>
        <mxCell id="s73U85u5VPr2uQ-XVRA2-26" value="" style="endArrow=none;dashed=1;html=1;rounded=0;" edge="1" parent="1">
          <mxGeometry width="50" height="50" relative="1" as="geometry">
            <mxPoint x="604" y="690" as="sourcePoint" />
            <mxPoint x="604.41" y="540" as="targetPoint" />
          </mxGeometry>
        </mxCell>
        <mxCell id="s73U85u5VPr2uQ-XVRA2-27" value="" style="endArrow=none;dashed=1;html=1;rounded=0;" edge="1" parent="1">
          <mxGeometry width="50" height="50" relative="1" as="geometry">
            <mxPoint x="794" y="690" as="sourcePoint" />
            <mxPoint x="794.41" y="620" as="targetPoint" />
          </mxGeometry>
        </mxCell>
        <mxCell id="s73U85u5VPr2uQ-XVRA2-28" value="" style="endArrow=none;dashed=1;html=1;rounded=0;" edge="1" parent="1">
          <mxGeometry width="50" height="50" relative="1" as="geometry">
            <mxPoint x="985" y="690" as="sourcePoint" />
            <mxPoint x="984.8199999999999" y="540" as="targetPoint" />
          </mxGeometry>
        </mxCell>
        <mxCell id="s73U85u5VPr2uQ-XVRA2-29" value="" style="endArrow=none;dashed=1;html=1;rounded=0;" edge="1" parent="1">
          <mxGeometry width="50" height="50" relative="1" as="geometry">
            <mxPoint x="408.40999999999997" y="390" as="sourcePoint" />
            <mxPoint x="409" y="300" as="targetPoint" />
          </mxGeometry>
        </mxCell>
        <mxCell id="s73U85u5VPr2uQ-XVRA2-30" value="" style="endArrow=none;dashed=1;html=1;rounded=0;" edge="1" parent="1" source="s73U85u5VPr2uQ-XVRA2-16">
          <mxGeometry width="50" height="50" relative="1" as="geometry">
            <mxPoint x="604.5" y="380" as="sourcePoint" />
            <mxPoint x="604.5" y="300" as="targetPoint" />
          </mxGeometry>
        </mxCell>
        <mxCell id="s73U85u5VPr2uQ-XVRA2-31" value="" style="endArrow=none;dashed=1;html=1;rounded=0;" edge="1" parent="1" source="s73U85u5VPr2uQ-XVRA2-20">
          <mxGeometry width="50" height="50" relative="1" as="geometry">
            <mxPoint x="794.5" y="380" as="sourcePoint" />
            <mxPoint x="794.5" y="300" as="targetPoint" />
          </mxGeometry>
        </mxCell>
        <mxCell id="s73U85u5VPr2uQ-XVRA2-32" value="" style="endArrow=none;dashed=1;html=1;rounded=0;" edge="1" parent="1" source="s73U85u5VPr2uQ-XVRA2-18">
          <mxGeometry width="50" height="50" relative="1" as="geometry">
            <mxPoint x="984.5" y="380" as="sourcePoint" />
            <mxPoint x="984.5" y="300" as="targetPoint" />
          </mxGeometry>
        </mxCell>
        <mxCell id="s73U85u5VPr2uQ-XVRA2-33" value="&lt;font style=&quot;font-size: 14px;&quot;&gt;Регистрация/Авторизация&lt;/font&gt;" style="text;html=1;align=center;verticalAlign=middle;whiteSpace=wrap;rounded=0;" vertex="1" parent="1">
          <mxGeometry x="384" y="265" width="60" height="30" as="geometry" />
        </mxCell>
        <mxCell id="s73U85u5VPr2uQ-XVRA2-34" value="&lt;font style=&quot;font-size: 14px;&quot;&gt;Внесение данных&lt;/font&gt;" style="text;html=1;align=center;verticalAlign=middle;whiteSpace=wrap;rounded=0;" vertex="1" parent="1">
          <mxGeometry x="244" y="400" width="140" height="30" as="geometry" />
        </mxCell>
        <mxCell id="s73U85u5VPr2uQ-XVRA2-35" value="&lt;span style=&quot;font-size: 14px;&quot;&gt;Шаблон задачи&lt;/span&gt;" style="text;html=1;align=center;verticalAlign=middle;whiteSpace=wrap;rounded=0;" vertex="1" parent="1">
          <mxGeometry x="244" y="470" width="140" height="30" as="geometry" />
        </mxCell>
        <mxCell id="s73U85u5VPr2uQ-XVRA2-36" value="&lt;font style=&quot;font-size: 14px;&quot;&gt;Готовая задача&lt;/font&gt;" style="text;html=1;align=center;verticalAlign=middle;whiteSpace=wrap;rounded=0;" vertex="1" parent="1">
          <mxGeometry x="244" y="540" width="140" height="30" as="geometry" />
        </mxCell>
        <mxCell id="s73U85u5VPr2uQ-XVRA2-37" value="&lt;span style=&quot;font-size: 14px;&quot;&gt;Задача&lt;/span&gt;" style="text;html=1;align=center;verticalAlign=middle;resizable=0;points=[];autosize=1;strokeColor=none;fillColor=none;" vertex="1" parent="1">
          <mxGeometry x="650" y="470" width="70" height="30" as="geometry" />
        </mxCell>
        <mxCell id="s73U85u5VPr2uQ-XVRA2-38" value="&lt;span style=&quot;font-size: 14px;&quot;&gt;Задача&lt;/span&gt;" style="text;html=1;align=center;verticalAlign=middle;resizable=0;points=[];autosize=1;strokeColor=none;fillColor=none;" vertex="1" parent="1">
          <mxGeometry x="860" y="470" width="70" height="30" as="geometry" />
        </mxCell>
      </root>
    </mxGraphModel>
  </diagram>
</mxfile>
